# xmcd
#
# Track frame offsets:
#	150
#	16258
#	30217
#	48220
#	67915
#	80505
#	99201
#	115354
#	132329
#	152084
#	170324
#	183799
#	199701
#	217690
#	232903
#
# Disc length: 3329 seconds
#
# Revision: 0
# Processed by: cddbd v1.5.2PL0 Copyright (c) Steve Scherf et al.
# Submitted via: dBpowerAMP V4.0
#
DISCID=a80cff0f
DTITLE=Gary Allen - Gary Allen Greatest Hits
DYEAR=1900
DGENRE=Country
TTITLE0=A Feelin Like That
TTITLE1=Right Where I Need to be
TTITLE2=Songs About Rain
TTITLE3=Smoke Rings in the Dark
TTITLE4=Her Man
TTITLE5=Best I Ever Had
TTITLE6=Nothing on But the Radio
TTITLE7=Man to Man
TTITLE8=TrackThe One
TTITLE9=Lovin You Against My Will
TTITLE10=It Would Be You
TTITLE11=Man of Me
TTITLE12=Tough Little Boys
TTITLE13=As The Crow Flies
TTITLE14=Life Aint Always Beautiful
EXTD=Gary Allen greatest Hits
EXTT0=
EXTT1=
EXTT2=
EXTT3=
EXTT4=
EXTT5=
EXTT6=
EXTT7=
EXTT8=
EXTT9=
EXTT10=
EXTT11=
EXTT12=
EXTT13=
EXTT14=
PLAYORDER=
